<svg width="114" height="21" viewBox="0 0 114 21" fill="none" xmlns="http://www.w3.org/2000/svg">
<g clip-path="url(#clip0_4_6700)">
<path fill-rule="evenodd" clip-rule="evenodd" d="M15.6264 17.1851C14.6315 18.2097 13.655 19.2572 12.5912 20.2109C11.3321 21.3384 9.32627 21.2424 8.11081 20.0325C5.72815 17.6608 3.35239 15.28 0.990406 12.8877C-0.358312 11.5223 -0.314657 9.41588 1.03866 8.06193C3.39834 5.70394 5.74653 3.33453 8.10392 0.976543C9.37222 -0.290501 11.4355 -0.333956 12.7268 0.901069C13.7125 1.84563 14.6568 2.83137 15.6195 3.7988C15.3898 4.13958 15.075 4.40259 14.7901 4.68848C13.7079 5.78399 12.6142 6.86807 11.5182 7.94986C11.123 8.34095 10.7876 8.76864 10.5969 9.29238C10.1948 10.3948 10.3005 11.4605 10.9829 12.4142C11.4861 13.1187 12.1616 13.6813 12.7635 14.3034C13.7033 15.2777 14.6706 16.2245 15.6264 17.1828V17.1851Z" fill="white"/>
<path fill-rule="evenodd" clip-rule="evenodd" d="M15.6587 3.80099C16.2722 3.29555 16.7983 2.70091 17.3589 2.14286C17.8162 1.68544 18.2642 1.21888 18.749 0.791191C19.4935 0.132511 20.401 -0.0733264 21.3569 0.0799082C22.0507 0.189688 22.6826 0.487009 23.2019 1.01533C24.9251 2.76723 26.6736 4.49169 28.4037 6.23445C29.1413 6.97775 29.9386 7.67074 30.5842 8.49638C31.4941 9.65821 31.517 11.2615 30.6187 12.453C30.0259 13.2421 29.2722 13.8916 28.5784 14.5892C27.1102 16.0643 25.6397 17.5372 24.16 19.0009C23.6545 19.4995 23.2042 20.0622 22.5999 20.4555C21.9588 20.8741 21.2443 21.0227 20.4837 20.945C19.822 20.8786 19.2384 20.6065 18.7169 20.2177C18.4503 20.0187 18.2435 19.7443 18.0069 19.5041C17.2533 18.7379 16.4996 17.9718 15.746 17.2079C15.7276 17.1896 15.6955 17.1873 15.6702 17.1781C15.6978 17.1438 15.7253 17.105 15.7552 17.0729C17.1591 15.6572 18.5675 14.2438 19.9714 12.8281C21.2259 11.5634 21.2213 9.40892 19.9622 8.14874C18.8363 7.02121 17.7082 5.89825 16.5846 4.77072C16.2699 4.4551 15.9689 4.12576 15.661 3.80099H15.6587Z" fill="white"/>
<path fill-rule="evenodd" clip-rule="evenodd" d="M15.6586 3.80113C15.9664 4.12361 16.2674 4.45523 16.5822 4.77085C17.7058 5.90067 18.8362 7.02363 19.9598 8.14887C21.2189 9.40906 21.2235 11.5635 19.9689 12.8282C18.5651 14.2439 17.1589 15.6597 15.7528 17.0731C15.7206 17.1051 15.6953 17.1417 15.6677 17.1783C15.654 17.1829 15.6379 17.1851 15.6241 17.1829C14.6683 16.2246 13.701 15.2777 12.7612 14.3034C12.1592 13.6813 11.4837 13.1164 10.9806 12.4143C10.2981 11.4606 10.1925 10.3971 10.5945 9.29241C10.7853 8.76867 11.1207 8.34099 11.5159 7.9499C12.6119 6.86811 13.7056 5.78403 14.7877 4.68852C15.0727 4.40034 15.3874 4.13733 15.6172 3.79884C15.631 3.79427 15.6425 3.79427 15.6563 3.79884L15.6586 3.80113Z" fill="white" fill-opacity="0.6"/>
<path fill-rule="evenodd" clip-rule="evenodd" d="M58.2454 13.958C58.2454 15.3943 58.2408 16.7574 58.25 18.1205C58.25 18.3263 58.2109 18.3995 57.9858 18.3926C57.4068 18.3744 56.8278 18.3812 56.2488 18.3904C56.0948 18.3904 56.0259 18.3744 56.0259 18.1891C56.0328 14.1478 56.0305 10.1043 56.0259 6.06298C56.0259 5.90975 56.042 5.83199 56.2304 5.83656C56.791 5.85029 57.3516 5.84571 57.9122 5.83656C58.0685 5.83656 58.1213 5.88459 58.1167 6.04011C58.1075 6.38318 58.1144 6.72624 58.1144 7.14249C58.4292 6.75368 58.7279 6.4495 59.0863 6.21393C59.9135 5.66961 60.828 5.49121 61.8068 5.57355C64.3043 5.77939 65.6645 7.77144 65.9149 9.84811C66.085 11.2798 65.8024 12.5972 64.8994 13.7316C63.8631 15.0329 62.48 15.5658 60.8234 15.3897C59.7871 15.2799 58.9255 14.8431 58.2454 13.9603V13.958ZM60.952 13.3405C62.5167 13.3405 63.7598 12.1032 63.746 10.5068C63.7322 8.95843 62.6592 7.64565 60.9359 7.63421C59.3621 7.62506 58.1305 8.90812 58.1374 10.5251C58.1443 12.1009 59.385 13.3405 60.9543 13.3382L60.952 13.3405Z" fill="white"/>
<path fill-rule="evenodd" clip-rule="evenodd" d="M110.239 11.2388C109.09 11.2388 107.941 11.2456 106.795 11.2319C106.549 11.2296 106.521 11.3142 106.563 11.5178C106.792 12.6064 107.771 13.4367 108.92 13.5053C109.933 13.5647 110.781 13.272 111.342 12.3754C111.401 12.2817 111.466 12.2588 111.565 12.2611C112.208 12.2634 112.851 12.2657 113.495 12.2611C113.669 12.2611 113.704 12.3023 113.623 12.4646C112.879 13.9993 111.725 15.0536 110.011 15.3555C107.767 15.7489 105.565 14.6054 104.656 12.38C103.697 10.0381 104.633 7.36216 106.859 6.14315C109.591 4.64511 113.155 6.06767 113.892 9.36336C114.014 9.9054 114 10.4497 114 10.9986C114 11.193 113.931 11.2456 113.74 11.2456C112.573 11.2388 111.406 11.2411 110.241 11.2411L110.239 11.2388ZM111.762 9.50516C111.751 9.29246 111.684 9.10721 111.599 8.92653C111.05 7.76469 109.692 7.18834 108.373 7.56114C107.489 7.81043 106.898 8.36848 106.615 9.24215C106.556 9.42511 106.576 9.52803 106.829 9.52574C108.398 9.51202 109.968 9.51888 111.539 9.51888C111.611 9.51888 111.684 9.51202 111.762 9.50745V9.50516Z" fill="white"/>
<path fill-rule="evenodd" clip-rule="evenodd" d="M73.0123 11.2364C71.8635 11.2364 70.7147 11.2432 69.5659 11.2295C69.343 11.2295 69.2971 11.2958 69.3384 11.4948C69.5751 12.62 70.5745 13.4525 71.7349 13.5051C72.7389 13.5486 73.5753 13.2581 74.1267 12.3662C74.175 12.2861 74.2301 12.2564 74.3243 12.2564C74.9768 12.261 75.6294 12.261 76.2819 12.2564C76.4267 12.2564 76.4887 12.2747 76.4083 12.4394C75.6294 14.0563 74.4185 15.1152 72.5919 15.3714C70.0139 15.7328 67.6083 14.0129 67.1442 11.3461C66.6915 8.748 68.3481 6.07212 71.1444 5.6147C74.044 5.14127 76.3462 7.14247 76.7276 9.63082C76.7943 10.0699 76.769 10.5045 76.7828 10.9436C76.7897 11.1677 76.7253 11.2409 76.4887 11.2386C75.3307 11.2272 74.1727 11.2341 73.0146 11.2341L73.0123 11.2364ZM71.96 9.51418C72.6746 9.51418 73.3915 9.51418 74.106 9.51418C74.4599 9.51418 74.5656 9.34874 74.4231 9.01788C74.4093 8.98357 74.3955 8.95155 74.3794 8.91725C73.8165 7.7577 72.4816 7.18364 71.1788 7.54957C70.3103 7.792 69.706 8.32489 69.4234 9.18941C69.3177 9.51189 69.3246 9.51418 69.6486 9.51418C70.4183 9.51418 71.1903 9.51418 71.96 9.51418Z" fill="white"/>
<path fill-rule="evenodd" clip-rule="evenodd" d="M38.7614 6.85668C39.6138 5.69713 40.7512 5.46842 42.0333 5.58735C43.8415 5.75659 44.6778 6.91614 44.9536 8.45764C45.0478 8.99053 45.0707 9.52799 45.0707 10.0677C45.0661 11.6779 45.0638 13.288 45.073 14.8981C45.073 15.0993 45.0294 15.1611 44.8203 15.1542C44.2781 15.1382 43.7358 15.1336 43.1936 15.1542C42.927 15.1657 42.842 15.1108 42.8443 14.8226C42.8627 13.2491 42.8558 11.6756 42.8512 10.1021C42.8512 9.72011 42.8053 9.34045 42.6996 8.96766C42.417 7.97506 41.6036 7.63658 40.7351 7.65487C39.5035 7.68003 38.7913 8.5537 38.7798 9.73383C38.7637 11.4354 38.7637 13.137 38.7683 14.8386C38.7683 15.0879 38.7109 15.1657 38.4512 15.1542C37.8906 15.1313 37.33 15.1405 36.7693 15.1519C36.5878 15.1542 36.5166 15.1222 36.5166 14.9164C36.5235 10.8911 36.5212 6.86583 36.5166 2.84056C36.5166 2.6736 36.5557 2.621 36.728 2.62329C37.3254 2.63472 37.9228 2.63472 38.5201 2.62329C38.7154 2.61871 38.766 2.67818 38.766 2.86801C38.7591 4.07559 38.7614 5.28317 38.7614 6.49075C38.7614 6.59138 38.7614 6.68972 38.7614 6.85668Z" fill="white"/>
<path fill-rule="evenodd" clip-rule="evenodd" d="M86.596 6.88179C87.4392 5.70623 88.5835 5.45923 89.877 5.58959C90.5089 5.65363 91.0925 5.82516 91.6003 6.21854C92.2643 6.73313 92.5859 7.44899 92.7583 8.23803C92.8892 8.83725 92.9283 9.4479 92.926 10.0608C92.9237 11.6618 92.9214 13.2628 92.9306 14.8614C92.9306 15.0764 92.8938 15.1633 92.6526 15.1542C92.0828 15.1336 91.5129 15.1382 90.9431 15.1542C90.7318 15.161 90.6812 15.0947 90.6835 14.8934C90.6904 13.3016 90.6858 11.7098 90.6881 10.1203C90.6881 9.6606 90.6582 9.20547 90.4859 8.77778C90.1137 7.85838 89.344 7.63882 88.6018 7.66169C87.198 7.70514 86.6098 8.64513 86.6006 10.054C86.5914 11.6641 86.596 13.2742 86.6006 14.882C86.6006 15.081 86.5661 15.1656 86.3364 15.1587C85.7573 15.1382 85.1783 15.1473 84.5993 15.1542C84.4454 15.1542 84.3765 15.1404 84.3765 14.9552C84.3834 10.9139 84.3811 6.87036 84.3765 2.82908C84.3765 2.67813 84.4132 2.62782 84.5741 2.6301C85.1806 2.63925 85.7872 2.64154 86.3938 2.6301C86.5753 2.62553 86.6006 2.69185 86.6006 2.85195C86.5937 4.17617 86.5983 5.50039 86.5983 6.88865L86.596 6.88179Z" fill="white"/>
<path fill-rule="evenodd" clip-rule="evenodd" d="M50.346 11.966C50.5826 11.305 50.8032 10.6944 51.0238 10.0815C51.5063 8.74351 51.9888 7.40328 52.4667 6.06305C52.5264 5.89381 52.6069 5.82748 52.7999 5.83206C53.4248 5.84807 54.0498 5.84578 54.6747 5.83206C54.9068 5.82748 54.9252 5.88008 54.8448 6.08821C53.4524 9.66063 52.0669 13.2353 50.6814 16.8101C50.5022 17.2743 50.3161 17.7363 50.1415 18.2029C50.0909 18.3378 50.022 18.395 49.8658 18.3927C49.2132 18.3813 48.5607 18.3836 47.9082 18.3904C47.7313 18.3904 47.6853 18.3698 47.7657 18.1823C48.2275 17.1074 48.6756 16.0279 49.1351 14.9507C49.188 14.8272 49.1903 14.7242 49.1397 14.5962C48.0276 11.7625 46.9248 8.92648 45.8081 6.09507C45.7162 5.86407 45.7622 5.83206 45.9896 5.83663C46.5962 5.85035 47.2028 5.85264 47.8094 5.83663C48.0299 5.82977 48.1264 5.89609 48.2 6.10193C48.8778 7.97963 49.5648 9.85046 50.2518 11.7259C50.2747 11.7899 50.3023 11.8539 50.3483 11.9706L50.346 11.966Z" fill="white"/>
<path fill-rule="evenodd" clip-rule="evenodd" d="M80.505 6.90463C80.9484 6.22079 81.5412 5.80226 82.3247 5.63073C83.0622 5.47063 83.0599 5.45919 83.0599 6.18649C83.0599 6.6622 83.053 7.13791 83.0645 7.61363C83.0668 7.76686 83.0255 7.81489 82.8669 7.8126C82.5085 7.80803 82.1547 7.85835 81.8192 7.98871C80.9875 8.31576 80.6566 8.99503 80.6428 9.82066C80.6152 11.4925 80.629 13.1667 80.6382 14.8408C80.6382 15.0832 80.5877 15.1679 80.328 15.1587C79.7605 15.1358 79.1884 15.1427 78.6209 15.1587C78.4325 15.1633 78.3911 15.1015 78.3911 14.9254C78.3957 11.982 78.3957 9.03848 78.3911 6.09272C78.3911 5.91204 78.4256 5.83199 78.6324 5.83656C79.1838 5.85029 79.7352 5.848 80.2844 5.83656C80.4728 5.83199 80.521 5.9006 80.5118 6.07442C80.4981 6.35116 80.5073 6.62789 80.5073 6.90692L80.505 6.90463Z" fill="white"/>
<path fill-rule="evenodd" clip-rule="evenodd" d="M101.528 6.89109C101.972 6.21869 102.562 5.79787 103.346 5.63091C104.07 5.47539 104.067 5.46395 104.067 6.2004C104.067 6.65781 104.058 7.11523 104.072 7.57265C104.079 7.76019 104.033 7.81279 103.835 7.81736C103.327 7.82422 102.833 7.90885 102.411 8.2176C101.843 8.63157 101.655 9.23536 101.648 9.89175C101.629 11.5476 101.634 13.2012 101.643 14.857C101.643 15.0903 101.6 15.1703 101.347 15.1589C100.77 15.136 100.189 15.1452 99.6121 15.1543C99.4375 15.1566 99.3938 15.0994 99.3938 14.9371C99.3984 11.9753 99.3984 9.01122 99.3938 6.04945C99.3938 5.87334 99.4558 5.83675 99.619 5.83904C100.18 5.84818 100.74 5.84818 101.301 5.83904C101.48 5.83675 101.544 5.88706 101.533 6.07232C101.517 6.34448 101.528 6.62122 101.528 6.89338V6.89109Z" fill="white"/>
<path fill-rule="evenodd" clip-rule="evenodd" d="M97.2823 10.5068C97.2823 11.9705 97.2777 13.4343 97.2869 14.8957C97.2869 15.1016 97.234 15.1587 97.0272 15.1542C96.4482 15.1404 95.8692 15.1427 95.2902 15.1542C95.1064 15.1564 95.0352 15.1199 95.0352 14.9163C95.042 11.9705 95.042 9.02706 95.0352 6.0813C95.0352 5.89147 95.088 5.82972 95.2833 5.83429C95.8531 5.84573 96.4229 5.8503 96.9928 5.83429C97.2179 5.82743 97.2892 5.88232 97.2869 6.11789C97.2754 7.58162 97.2823 9.04536 97.2823 10.5068Z" fill="white"/>
<path fill-rule="evenodd" clip-rule="evenodd" d="M95.0582 4.06181C95.0674 3.84911 95.1248 3.68901 95.2512 3.55865C95.5131 3.29106 95.782 3.03033 96.037 2.75588C96.1404 2.6461 96.2001 2.66211 96.2966 2.76274C96.5425 3.02118 96.8044 3.26133 97.0503 3.51977C97.3627 3.84682 97.3673 4.2402 97.0618 4.56954C96.8136 4.83713 96.5425 5.08413 96.2897 5.34715C96.1978 5.44092 96.1381 5.4432 96.0462 5.34715C95.782 5.07041 95.5085 4.80053 95.2397 4.52837C95.1019 4.38886 95.0651 4.21504 95.0559 4.06181H95.0582Z" fill="#DFF0FF"/>
</g>
<defs>
<clipPath id="clip0_4_6700">
<rect width="114" height="21" fill="white"/>
</clipPath>
</defs>
</svg>
