<svg width="12" height="20" viewBox="0 0 12 20" fill="none" xmlns="http://www.w3.org/2000/svg">
<path d="M10.1833 6.60332C9.59841 6.60332 9.14159 6.13165 8.82972 5.63687C8.78467 5.56539 8.73515 5.49643 8.68116 5.42998C8.42042 5.10063 8.06705 4.85361 7.62105 4.68893C7.17505 4.52426 6.66729 4.44192 6.09778 4.44192C5.50082 4.44192 4.97591 4.53455 4.52304 4.71981C4.07018 4.90507 3.72024 5.16581 3.47322 5.50203C3.22621 5.83139 3.1027 6.20877 3.1027 6.63419C3.1027 7.26546 3.36001 7.75263 3.87463 8.09571C4.39611 8.43193 5.04452 8.69267 5.81988 8.87793L7.25052 9.25875C8.49247 9.56752 9.51828 10.041 10.3279 10.6791C11.1445 11.3172 11.5527 12.247 11.5527 13.4683C11.5527 14.3123 11.3332 15.0671 10.894 15.7326C10.4617 16.3914 9.82705 16.906 8.98993 17.2765C8.15968 17.647 7.17162 17.8323 6.02573 17.8323C4.91416 17.8323 3.9501 17.6539 3.13357 17.2971C2.32391 16.9403 1.68578 16.436 1.21919 15.7841C0.976398 15.4398 0.790061 15.0611 0.660183 14.648C0.463166 14.0212 1.00211 13.458 1.65908 13.458C2.25347 13.458 2.71338 13.9427 3.00728 14.4593C3.07045 14.5704 3.14343 14.6757 3.22621 14.7755C3.52812 15.1323 3.91923 15.3999 4.39954 15.5783C4.88671 15.7567 5.42534 15.8424 6.01544 15.8356C6.6467 15.8356 7.21278 15.7361 7.71368 15.5371C8.21458 15.3381 8.60569 15.0568 8.88701 14.6931C9.16833 14.3295 9.309 13.9075 9.309 13.4272C9.309 13.0155 9.19235 12.6655 8.95906 12.3773C8.72576 12.0891 8.4067 11.8559 8.00187 11.6775C7.59703 11.4991 7.09614 11.3309 6.49918 11.1731L4.72889 10.71C3.48008 10.3669 2.51946 9.87629 1.84703 9.23816C1.18145 8.59317 0.852099 7.76635 0.85896 6.7577C0.85896 5.91373 1.08539 5.16581 1.53826 4.51396C1.99798 3.86211 2.62925 3.36122 3.43205 3.01128C4.24172 2.65448 5.14745 2.47607 6.14924 2.47607C7.14417 2.47607 8.03274 2.65448 8.81496 3.01128C9.60405 3.36122 10.2182 3.85182 10.6573 4.48309C10.8757 4.78891 11.0423 5.11449 11.1571 5.45983C11.3587 6.06655 10.8226 6.60332 10.1833 6.60332Z" fill="#00C696"/>
<path d="M6.19043 1.5L6.19043 3.3291" stroke="#00C696" stroke-width="2" stroke-linecap="round"/>
<path d="M6.19043 16.918L6.19043 18.7471" stroke="#00C696" stroke-width="2" stroke-linecap="round"/>
</svg>
